<svg id="b5f2bb22-3991-498d-8745-0925dfc4110a" data-name="Livello 1" xmlns="http://www.w3.org/2000/svg" viewBox="0 0 269.92 158.94"><defs><style>.f4a58f32-996d-4239-a7f2-a0bbf0e3101b{fill:#525252;}</style></defs><title>bh-rotated</title><path class="f4a58f32-996d-4239-a7f2-a0bbf0e3101b" d="M149.16,155s89.91-52.73,108.69-68.67,18.81-20.13,18.81-20.13,1.52-6.87-16.51-2.37-26.84,8.86-38.45,11.85a81.94,81.94,0,0,1-10.52,2.19c-3.83.44-7.73.93-11.46,1a46.8,46.8,0,0,1-7.68-.33A41.24,41.24,0,0,1,185,76.92c-5.31-1.91-27.46-9.17-40.91-9.83a95.43,95.43,0,0,0-19.38,1.24c-8.33,1.37-16.19,4-21.52,7l17.92,31s23.6-15.44,51.31,13.07a3.64,3.64,0,0,0,2.65,1.09s3.57-.47.43,2.66c0,0-2.85,3.56-15.48,10.92S142.83,144,142.83,144Z" transform="translate(-6.77 -62.26)"/><path class="f4a58f32-996d-4239-a7f2-a0bbf0e3101b" d="M174.09,198.14C214.74,174.59,193,135.77,193,135.77l-16.78,10c.8,21.38-15.24,29.57-15.24,29.57Z" transform="translate(-6.77 -62.26)"/><path class="f4a58f32-996d-4239-a7f2-a0bbf0e3101b" d="M149.16,155s-90.61,51.49-113.8,59.79S8.51,221,8.51,221s-6.7-2.12,6.21-15.48,21.09-18.81,29.48-27.37a83.31,83.31,0,0,0,7.16-8c2.3-3.1,4.67-6.23,6.58-9.43a47.63,47.63,0,0,0,3.56-6.82,41.32,41.32,0,0,0,2.18-6.9c1-5.55,5.78-28.36,11.94-40.34A95.62,95.62,0,0,1,86.38,90.45c5.35-6.53,11.53-12,16.79-15.16l17.92,31s-25.17,12.72-14.34,51a3.65,3.65,0,0,1-.38,2.84s-2.19,2.86,2.09,1.7c0,0,4.51-.69,17.2-7.94S142.83,144,142.83,144Z" transform="translate(-6.77 -62.26)"/><path class="f4a58f32-996d-4239-a7f2-a0bbf0e3101b" d="M174.09,198.14c-40.72,23.41-63.45-14.87-63.45-14.87l17.08-9.52c18.11,11.38,33.21,1.59,33.21,1.59Z" transform="translate(-6.77 -62.26)"/></svg>