<?xml version="1.0" standalone="no"?>
<!DOCTYPE svg PUBLIC "-//W3C//DTD SVG 20010904//EN"
 "http://www.w3.org/TR/2001/REC-SVG-20010904/DTD/svg10.dtd">
<svg version="1.0" xmlns="http://www.w3.org/2000/svg"
 width="1080.000000pt" height="1080.000000pt" viewBox="0 0 1080.000000 1080.000000"
 preserveAspectRatio="xMidYMid meet">
<metadata>
Created by potrace 1.11, written by Peter Selinger 2001-2013
</metadata>
<g transform="translate(0.000000,1080.000000) scale(0.100000,-0.100000)"
fill="#000000" stroke="none">
<path d="M10465 8574 c-137 -18 -199 -30 -325 -60 -243 -58 -445 -119 -925
-279 -253 -84 -521 -170 -595 -189 -337 -89 -633 -129 -955 -130 -266 -1 -343
14 -698 130 -597 194 -1087 308 -1449 336 -390 30 -966 -51 -1348 -189 -131
-47 -314 -135 -390 -186 -359 -242 -754 -703 -1008 -1177 -156 -293 -323 -828
-462 -1489 -57 -272 -87 -366 -165 -526 -88 -183 -268 -448 -447 -660 -119
-140 -387 -398 -698 -671 -298 -260 -674 -622 -789 -759 -214 -254 -266 -432
-143 -491 92 -43 423 25 904 187 323 108 563 215 1158 515 1032 520 3035 1618
4015 2201 1941 1157 3184 1939 3738 2356 170 128 398 327 583 512 241 240 343
379 330 450 -8 40 -49 80 -104 99 -45 16 -174 27 -227 20z m-5105 -1594 c425
-44 797 -235 1197 -613 119 -112 106 -105 223 -120 26 -4 23 -45 -7 -82 -69
-87 -320 -270 -593 -432 -387 -229 -1481 -857 -1640 -941 -210 -111 -411 -192
-512 -207 -34 -5 -47 -3 -58 10 -11 13 -10 23 10 64 27 58 25 84 -18 266 -53
224 -67 338 -67 570 0 226 7 287 56 473 117 449 425 803 819 940 194 68 394
92 590 72z"/>
<path d="M7109 5433 l-326 -196 -6 -141 c-14 -336 -139 -627 -367 -856 -156
-155 -328 -252 -550 -308 -95 -24 -123 -27 -290 -27 -145 0 -202 4 -264 18
-149 35 -275 84 -396 152 -34 19 -66 35 -72 35 -5 0 -160 -84 -344 -186 l-334
-186 18 -30 c69 -119 328 -393 482 -510 225 -171 483 -286 755 -335 125 -23
376 -23 519 1 364 60 797 263 1104 519 112 94 277 269 349 370 265 376 352
835 252 1335 -37 187 -164 543 -192 541 -7 0 -159 -89 -338 -196z"/>
</g>
</svg>
